<?xml version="1.0" encoding="UTF-8"?><svg id="Layer_1" xmlns="http://www.w3.org/2000/svg" viewBox="0 0 587.588 62.208"><path d="M11.304,61.344L1.368,52.2h-.504l-.864-1.224v-8.064l.864-4.752,12.816.216.576.504-.072,5.832-.216,5.76h19.224l-.216-11.88-4.752-1.584-14.256-4.032-8.424-2.52-3.672-.864-.648-.72.792-5.976.288-7.92L7.776,5.616l.504-.72L11.592.648h7.848l13.248-.432.072-.072.144-.144.504.144,3.312,4.464,4.392,4.968,3.528,3.816v4.608l-3.024.144-3.888.144h-7.128l-.072-1.008v-1.872l-.216-4.032-.216-4.896-13.68.432-.288.144.36,7.056.36,6.552.432,1.224,12.6,3.312,2.088.504,5.112,1.728,4.752,1.368,2.16.432v5.472l-.072,5.472.432,10.512-7.128,7.344-2.376,3.528-23.544-.216Z" fill="#5a0b4d" stroke-width="0"/><path d="M48.168,61.992v-10.44l-.792-48.456.36-1.944,17.712.432,1.08,1.008,3.672,6.696,2.304,4.392.216,1.44,3.312,7.128,4.824,10.512.36.072,1.08-4.032,6.912-27.216h15.048l-.36,31.248-.504,3.384.864,15.696.072.936v1.008l-.216,5.472.288,1.728-.288.144-8.064.288-1.152-17.424-.792-15.768h-.792l-3.672,9.864-2.016,5.904-4.464,13.968-.648,2.664-.72,1.512-6.336-.288-2.52-5.544-3.816-8.712-10.656-22.248h-.36l.144,29.304-.576,1.656.36.792.216,4.536-3.672.504-6.408-.216Z" fill="#5a0b4d" stroke-width="0"/><path d="M106.632,46.656l.216-2.808-.144-2.16,10.08-28.008,2.016-5.112,1.296-3.384.288-.648.072-.72.648-1.512.576-1.656h15.264l.648.936,1.08,5.616,1.872,6.84,2.592,9.144,3.024,8.712,2.232,7.344v15.048l-.216,3.312-.432,3.24-2.304.216-7.632-.216-.072-1.224-1.08-4.968-1.872-7.128-1.152-4.032-14.184-.144-1.584.288-.576,1.512-2.664,4.752-4.32,7.992-2.448,3.312h-.72l-.504-14.544ZM129.168,31.464l-1.944-14.04-.432-3.384-.504-3.384-.36-.288-.432,1.944-1.512,5.76-2.376,10.152-1.512,4.608.288.216,9.432.432-.648-2.016Z" fill="#5a0b4d" stroke-width="0"/><path d="M160.918,60.768l-8.856-.072-.72-.792-.288-6.192.36-.216-.216-.36.072-11.448.216-6.48.36-6.408-.072-14.616-.288-4.536-.144-4.608-.288-1.8-.144-1.8,8.352.504.72.576v9.432l-.072,9.432-.072,8.28-.144,8.28.144,3.744,20.952.504,1.584.576.072,1.224-.576,6.768-.144,5.112-.072,5.04-.216.72-20.52-.864Z" fill="#5a0b4d" stroke-width="0"/><path d="M185.399,61.344l.072-4.896.072-5.04-.792-9.72-.216-9.864-.216-9.864-.072-9.432V3.024l.288-.576.144-.576,10.296.144.36,38.304v1.368l.072,1.296.648.504,13.824-.072,3.888.504.36,1.152.072,3.888.144,3.888-.288,4.32-.288,4.32-.576.288h-25.992l-1.8-.432Z" fill="#5a0b4d" stroke-width="0"/><path d="M243.718,60.336l-.288-1.872-1.8-5.832-9.936-40.608-.648-1.872V1.008h.144l15.048.216.504.288.792,3.456,3.528,19.584.864,4.104h.216l2.304-6.48,1.224-3.744.072-.504.36-.792,1.944-5.76,1.152-3.024,2.592-5.616.432-1.728,1.8.288,14.256.432.792.288.648,3.384,4.752,20.232,3.672,14.976h.144l6.12-22.896,2.664-8.352,1.224-4.68.864-3.528,5.832.072.432,11.88-.864,1.8-.864,3.528-6.552,22.032-1.152,4.032-2.088,9.216-1.296,5.472v2.376l-1.008.432h-15.84l-.432-1.224-3.096-13.896-.072-.72-.216-.792-3.672-17.424-1.368-5.544-1.008-1.8-1.008,3.312-7.2,27-.576,1.728-2.592,9.36-10.512.216-.288-1.872Z" fill="#5a0b4d" stroke-width="0"/><path d="M316.726,59.328l-5.832-6.768-3.24-3.456-.144-8.64-.288-8.568-.072-6.12.144-12.384,12.24-10.944.432-.432.432-.36,22.68-.144,5.256,6.48.648.576,3.815,4.536-.215,22.176-.216,3.384-.288,3.384-.288,3.528-.144,3.528-3.528,3.744-4.536,5.04-3.6,4.032-20.448.072-2.808-2.664ZM340.485,51.696l.216-.792.144-.792.36-14.472.648-17.28.216-4.536.144-4.464-9.288-.144-.288.144h-12.168l-.072,13.752-.36,26.928.432,1.656h20.016Z" fill="#5a0b4d" stroke-width="0"/><path d="M386.925,61.272l-.504-.36-.647-1.944-4.104-7.56-1.008-1.872-.36-.576-.359-1.008-.937-2.016-1.655-3.672-1.44-3.528-.936-1.296v-.288l-2.305-4.608-1.008-1.944-1.368-2.592-2.231-3.888v-.432h-.36v-.144l-.072-.288-2.016-4.32-.288,1.08.432,16.272.217,1.872.144,1.728v21.456l-8.64-.072-1.368-.144-.433-.792.36-2.736.072-10.368.144-45.936.36-.216.36-.216,10.872.216,1.079,1.224.937,1.872.936,1.44.288.648,1.152,1.8.864,1.584.432.504,2.448,4.536.432.792,1.729,2.664.432,1.008,1.008,1.584,1.296,2.376,2.809,4.032.575,1.584.721.792,1.296,2.376,1.728,2.376,1.944,3.168,2.52,3.744.288.576.792,1.152,1.44,2.808.792,1.224.432-.288-.216-5.04-.072-4.968-.071-33.84v-1.224l1.368-.504h7.775l.433.936-.433,2.664.216,11.016-.359,7.2-.216,10.944.216,9.648.144,9.864.216,2.736.145,5.04-.288.432-.288.072-17.856-.36Z" fill="#5a0b4d" stroke-width="0"/><path d="M408.885,48.672l.792-25.416.576-5.76-.359-4.104-.217-12.24,24.408-.432,12.024.144.504.792,4.032,5.4,1.08,1.08,3.023,3.888,2.16,2.448.216,6.048.145,24.264.432,4.248-11.376,12.24-1.728.36-26.713-.432-.287-.288-8.713.288v-12.528ZM437.109,53.784l.792-.504.432-7.776.216-2.88.145-2.952.36-19.8.359-5.04.433-4.32-14.185.432h-4.968v5.904l-1.296,36.936h17.712Z" fill="#5a0b4d" stroke-width="0"/><path d="M472.389,61.56h-2.736l-8.136-.36v-16.776l-.504-16.2-.288-6.408-.433-18.648V.864l1.368-.072,14.112-.144,8.136.072,17.28.072,2.016.504.576,5.04-.359,1.008-5.977.288-24.336.072-1.008.936v10.296l.288.288,7.416.504,23.111-.144.505,5.76-.217,2.088-.071,1.944-.648.648-18.504.432-9.936.432-.072.072-.576,14.184v1.944l-.072,2.016,8.856.144,19.728.144.145.864v2.808l-.145,4.608-.144,2.16-.288,2.16-29.088-.432Z" fill="#5a0b4d" stroke-width="0"/><path d="M529.629,60.768l-.432-7.704-.145-16.128-.432-.36-1.368.72h-10.368l-.72.504-.288,5.112-.216,5.04-.216,1.656-.504,10.872-.792.432h-7.488l-.288-5.76-.145-5.904.36-15.192.36-15.192.216-7.056v-7.2l-.145-3.024.145-.288.072-.144,9.647.288,14.112.576.144.288,1.729,2.664,8.64,8.784-.216,1.728-.216,3.384v3.384l-9.433,7.704v1.08l8.568,8.424-.576,2.376-.071,2.448-.36,6.84.144,4.392.072,4.32.216,2.16h-9.359l-.648-1.224ZM530.421,25.704l.145-.072.216-8.568.144-8.568h-15.191l.287,17.712.217.288,14.184-.792Z" fill="#5a0b4d" stroke-width="0"/><path d="M554.252,61.344l-9.936-9.144h-.505l-.863-1.224v-8.064l.863-4.752,12.816.216.576.504-.072,5.832-.216,5.76h19.224l-.216-11.88-4.752-1.584-14.256-4.032-8.424-2.52-3.672-.864-.648-.72.792-5.976.288-7.92,5.472-9.36.504-.72,3.312-4.248h7.848l13.248-.432.072-.072.144-.144.505.144,3.312,4.464,4.392,4.968,3.528,3.816v4.608l-3.023.144-3.889.144h-7.128l-.072-1.008v-1.872l-.216-4.032-.216-4.896-13.68.432-.288.144.359,7.056.36,6.552.432,1.224,12.601,3.312,2.088.504,5.112,1.728,4.752,1.368,2.16.432v5.472l-.072,5.472.432,10.512-7.128,7.344-2.376,3.528-23.544-.216Z" fill="#5a0b4d" stroke-width="0"/></svg>