<?xml version="1.0" encoding="utf-8"?>
<!-- Generator: Adobe Illustrator 28.2.0, SVG Export Plug-In . SVG Version: 6.00 Build 0)  -->
<svg version="1.1" id="Layer_1" xmlns="http://www.w3.org/2000/svg" xmlns:xlink="http://www.w3.org/1999/xlink" x="0px" y="0px"
	 viewBox="0 0 587.6 62.2" style="enable-background:new 0 0 587.6 62.2;" xml:space="preserve">
<style type="text/css">
	.st0{fill:#F2B7D4;}
</style>
<path class="st0" d="M11.3,61.3l-9.9-9.1H0.9L0,51v-8.1l0.9-4.8l12.8,0.2l0.6,0.5l-0.1,5.8L14,50.5h19.2L33,38.6L28.2,37L14,33
	l-8.4-2.5l-3.7-0.9l-0.6-0.7l0.8-6L2.3,15l5.5-9.4l0.5-0.7l3.3-4.2h7.8l13.2-0.4l0.1-0.1L32.9,0l0.5,0.1l3.3,4.5l4.4,5l3.5,3.8V18
	l-3,0.1l-3.9,0.1h-7.1l-0.1-1v-1.9l-0.2-4l-0.2-4.9L16.4,6.9L16.1,7l0.4,7.1l0.4,6.6l0.4,1.2l12.6,3.3l2.1,0.5l5.1,1.7l4.8,1.4
	l2.2,0.4v5.5L44,40.2l0.4,10.5L37.2,58l-2.4,3.5C34.8,61.6,11.3,61.3,11.3,61.3z"/>
<path class="st0" d="M48.2,62V51.6L47.4,3.1l0.4-1.9l17.7,0.4l1.1,1l3.7,6.7l2.3,4.4l0.2,1.4l3.3,7.1l4.8,10.5l0.4,0.1l1.1-4
	l6.9-27.2h15l-0.4,31.2l-0.5,3.4l0.9,15.7l0.1,0.9v1l-0.2,5.5l0.3,1.7l-0.3,0.1L96,61.5l-1.2-17.4L94,28.3h-0.8l-3.7,9.9l-2,5.9
	l-4.5,14l-0.6,2.7l-0.7,1.5L75.4,62l-2.5-5.5l-3.8-8.7L58.5,25.4h-0.4l0.1,29.3l-0.6,1.7l0.4,0.8l0.2,4.5l-3.7,0.5
	C54.6,62.2,48.2,62,48.2,62z"/>
<path class="st0" d="M106.6,46.7l0.2-2.8l-0.1-2.2l10.1-28l2-5.1l1.3-3.4l0.3-0.6l0.1-0.7l0.6-1.5l0.6-1.7H137l0.6,0.9l1.1,5.6
	l1.9,6.8l2.6,9.1l3,8.7l2.2,7.3v15l-0.2,3.3l-0.4,3.2l-2.3,0.2l-7.6-0.2l-0.1-1.2l-1.1-5l-1.9-7.1l-1.2-4l-14.2-0.1l-1.6,0.3
	l-0.6,1.5l-2.7,4.8l-4.3,8l-2.4,3.3h-0.7L106.6,46.7L106.6,46.7L106.6,46.7z M129.2,31.5l-1.9-14l-0.4-3.4l-0.5-3.4l-0.4-0.3
	l-0.4,1.9l-1.5,5.8l-2.4,10.2l-1.5,4.6l0.3,0.2l9.4,0.4L129.2,31.5L129.2,31.5L129.2,31.5z"/>
<path class="st0" d="M160.9,60.8l-8.9-0.1l-0.7-0.8l-0.3-6.2l0.4-0.2l-0.2-0.4l0.1-11.4l0.2-6.5l0.4-6.4l-0.1-14.6l-0.3-4.5L151.3,5
	L151,3.2l-0.1-1.8l8.4,0.5l0.7,0.6V12l-0.1,9.4l-0.1,8.3l-0.1,8.3l0.1,3.7l21,0.5l1.6,0.6l0.1,1.2l-0.6,6.8l-0.1,5.1l-0.1,5
	l-0.2,0.7C181.4,61.6,160.9,60.8,160.9,60.8z"/>
<path class="st0" d="M185.4,61.3l0.1-4.9l0.1-5l-0.8-9.7l-0.2-9.9l-0.2-9.9l-0.1-9.4V3l0.3-0.6l0.1-0.6L195,2l0.4,38.3v1.4l0.1,1.3
	l0.6,0.5l13.8-0.1l3.9,0.5l0.4,1.2l0.1,3.9l0.1,3.9l-0.3,4.3l-0.3,4.3l-0.6,0.3h-26C187.2,61.8,185.4,61.3,185.4,61.3z"/>
<path class="st0" d="M243.7,60.3l-0.3-1.9l-1.8-5.8L231.7,12l-0.6-1.9V1h0.1l15,0.2l0.5,0.3l0.8,3.5l3.5,19.6l0.9,4.1h0.2l2.3-6.5
	l1.2-3.7l0.1-0.5l0.4-0.8l1.9-5.8l1.2-3l2.6-5.6l0.4-1.7l1.8,0.3l14.3,0.4l0.8,0.3l0.6,3.4l4.8,20.2l3.7,15h0.1l6.1-22.9l2.7-8.4
	l1.2-4.7l0.9-3.5l5.8,0.1l0.4,11.9l-0.9,1.8l-0.9,3.5l-6.6,22l-1.2,4l-2.1,9.2l-1.3,5.5v2.4l-1,0.4h-15.8l-0.4-1.2l-3.1-13.9
	l-0.1-0.7l-0.2-0.8L268.1,28l-1.4-5.5l-1-1.8l-1,3.3l-7.2,27l-0.6,1.7l-2.6,9.4L244,62.2L243.7,60.3L243.7,60.3L243.7,60.3z"/>
<path class="st0" d="M316.7,59.3l-5.8-6.8l-3.2-3.5l-0.1-8.6l-0.3-8.6l-0.1-6.1l0.1-12.4l12.2-10.9L320,2l0.4-0.4l22.7-0.1l5.3,6.5
	l0.6,0.6l3.8,4.5l-0.2,22.2l-0.2,3.4l-0.3,3.4l-0.3,3.5l-0.1,3.5l-3.5,3.7l-4.5,5l-3.6,4L319.5,62L316.7,59.3z M340.5,51.7l0.2-0.8
	l0.1-0.8l0.4-14.5l0.6-17.3l0.2-4.5l0.1-4.5l-9.3-0.1l-0.3,0.1h-12.2l-0.1,13.8L320,50l0.4,1.7H340.5L340.5,51.7L340.5,51.7z"/>
<path class="st0" d="M386.9,61.3l-0.5-0.4l-0.6-1.9l-4.1-7.6l-1-1.9l-0.4-0.6l-0.4-1l-0.9-2l-1.7-3.7l-1.4-3.5l-0.9-1.3v-0.3
	l-2.3-4.6l-1-1.9l-1.4-2.6l-2.2-3.9v-0.4h-0.4v-0.1l-0.1-0.3l-2-4.3l-0.3,1.1l0.4,16.3l0.2,1.9L366,40v21.5l-8.6-0.1l-1.4-0.1
	l-0.4-0.8l0.4-2.7l0.1-10.4l0.1-45.9l0.4-0.2l0.4-0.2l10.9,0.2l1.1,1.2l0.9,1.9l0.9,1.4l0.3,0.6l1.2,1.8l0.9,1.6l0.4,0.5l2.4,4.5
	l0.4,0.8l1.7,2.7l0.4,1l1,1.6l1.3,2.4l2.8,4l0.6,1.6l0.7,0.8l1.3,2.4l1.7,2.4l1.9,3.2l2.5,3.7l0.3,0.6l0.8,1.2l1.4,2.8l0.8,1.2
	l0.4-0.3l-0.2-5l-0.1-5l-0.1-33.8V1.6l1.4-0.5h7.8l0.4,0.9L405,4.7l0.2,11l-0.4,7.2l-0.2,10.9l0.2,9.6l0.1,9.9l0.2,2.7l0.1,5
	l-0.3,0.4l-0.3,0.1L386.9,61.3L386.9,61.3L386.9,61.3z"/>
<path class="st0" d="M408.9,48.7l0.8-25.4l0.6-5.8l-0.4-4.1l-0.2-12.2l24.4-0.4l12,0.1l0.5,0.8l4,5.4l1.1,1.1l3,3.9l2.2,2.4l0.2,6
	l0.1,24.3l0.4,4.2l-11.4,12.2l-1.7,0.4l-26.7-0.4l-0.3-0.3l-8.7,0.3L408.9,48.7L408.9,48.7L408.9,48.7z M437.1,53.8l0.8-0.5l0.4-7.8
	l0.2-2.9l0.1-3l0.4-19.8l0.4-5l0.4-4.3l-14.2,0.4h-5v5.9l-1.3,36.9L437.1,53.8L437.1,53.8L437.1,53.8z"/>
<path class="st0" d="M472.4,61.6h-2.7l-8.1-0.4V44.4L461,28.2l-0.3-6.4l-0.4-18.6V0.9l1.4-0.1l14.1-0.1l8.1,0.1l17.3,0.1l2,0.5
	l0.6,5l-0.4,1l-6,0.3l-24.3,0.1l-1,0.9V19l0.3,0.3l7.4,0.5l23.1-0.1l0.5,5.8l-0.2,2.1l-0.1,1.9l-0.6,0.6L484,30.5l-9.9,0.4L474,31
	l-0.6,14.2v1.9l-0.1,2l8.9,0.1l19.7,0.1l0.1,0.9V53l-0.1,4.6l-0.1,2.2l-0.3,2.2L472.4,61.6L472.4,61.6L472.4,61.6z"/>
<path class="st0" d="M529.6,60.8l-0.4-7.7L529.1,37l-0.4-0.4l-1.4,0.7h-10.4l-0.7,0.5l-0.3,5.1l-0.2,5l-0.2,1.7L515,60.5l-0.8,0.4
	h-7.5l-0.3-5.8l-0.1-5.9l0.4-15.2l0.4-15.2l0.2-7.1V4.6l-0.1-3l0.1-0.3l0.1-0.1l9.6,0.3L531,2l0.1,0.3l1.7,2.7l8.6,8.8l-0.2,1.7
	l-0.2,3.4v3.4l-9.4,7.7v1l8.6,8.4l-0.6,2.4l-0.1,2.4l-0.4,6.8l0.1,4.4l0.1,4.3l0.2,2.2h-9.4L529.6,60.8L529.6,60.8L529.6,60.8z
	 M530.4,25.7l0.1-0.1l0.2-8.6l0.1-8.6h-15.2l0.3,17.7l0.2,0.3L530.4,25.7L530.4,25.7z"/>
<path class="st0" d="M554.3,61.3l-9.9-9.1h-0.5L543,51v-8.1l0.9-4.8l12.8,0.2l0.6,0.5l-0.1,5.8l-0.2,5.8h19.2L576,38.5l-4.8-1.6
	l-14.3-4l-8.4-2.5l-3.7-0.9l-0.6-0.7l0.8-6l0.3-7.9l5.5-9.4l0.5-0.7l3.3-4.2h7.8l13.2-0.4l0.1-0.1l0.1-0.1l0.5,0.1l3.3,4.5l4.4,5
	l3.5,3.8V18l-3,0.1l-3.9,0.1h-7.1l-0.1-1v-1.9l-0.2-4L573,6.5l-13.7,0.4L559,7l0.4,7.1l0.4,6.6l0.4,1.2l12.6,3.3l2.1,0.5l5.1,1.7
	l4.8,1.4l2.2,0.4v5.5l-0.1,5.5l0.4,10.5l-7.1,7.3l-2.4,3.5L554.3,61.3L554.3,61.3L554.3,61.3z"/>
</svg>
